<?xml version="1.0" encoding="utf-8"?>
<!-- Generator: Adobe Illustrator 16.0.0, SVG Export Plug-In . SVG Version: 6.00 Build 0)  -->
<!DOCTYPE svg PUBLIC "-//W3C//DTD SVG 1.1//EN" "http://www.w3.org/Graphics/SVG/1.1/DTD/svg11.dtd">
<svg version="1.1" id="图层_1" xmlns="http://www.w3.org/2000/svg" xmlns:xlink="http://www.w3.org/1999/xlink" x="0px" y="0px"
	 width="200px" height="200px" viewBox="0 0 200 200" enable-background="new 0 0 200 200" xml:space="preserve">
<g>
	<g>
		<g>
			<path fill="#0C2434" d="M78,124.431c0,1.98,0,3.961,0,5.94c0,19.585,0,39.171,0,58.757c0,3.224,3.032,5.897,6.24,5.876
				c3.24-0.021,5.76-2.737,5.76-5.961c0-1.98,0-3.961,0-5.941c0-19.585,0.438-39.171,0.438-58.756c0-0.438-0.006-0.842-0.017-1.256
				c0.012-0.248-0.022-0.513,0-0.761c0.009-0.109,0.022-0.342,0.027-0.413c0.002-0.011,0.006-0.02,0.009-0.031
				c0.153-0.854,0.269-1.567,0.542-2.393c0.062-0.195,0.132-0.388,0.202-0.58c0.133-0.276,0.268-0.552,0.422-0.816
				c0.179-0.305,0.358-0.61,0.56-0.9c0.416-0.419,1.487-1.284,1.206-1.136c0.129-0.082,0.261-0.159,0.394-0.234
				c0.252-0.083,0.881-0.317,1.282-0.43c0.244-0.013,0.489-0.023,0.733-0.014c0.075,0.003,0.138,0.005,0.194,0.006
				c0.188,0.039,0.375,0.08,0.56,0.135c0.147,0.043,0.296,0.086,0.441,0.133c0.02,0.01,0.039,0.019,0.055,0.028
				c0.332,0.179,0.658,0.366,0.97,0.578c0.295,0.269,0.581,0.549,0.852,0.844c0.012,0.09,0.875,1.341,1.054,1.713
				c0.048,0.098,0.118,0.274,0.181,0.434c0.087,0.249,0.172,0.499,0.243,0.754c0.115,0.409,0.23,0.821,0.316,1.239
				c0.032,0.153,0.03,0.68,0.062,0.835c0.032,0.351-0.312,0.569-0.308,1.088c0.005,0.423-0.418,0.828-0.418,1.263
				c0,1.98,0,3.961,0,5.94c0,19.585,0.764,39.171,0.764,58.757c0,3.224,2.756,5.897,5.963,5.876c3.24-0.021,6.273-2.737,6.273-5.961
				c0-1.98,0-3.961,0-5.941c0-17.599,0-35.197,0-52.796c0-0.153,0-0.35,0-0.568c0-1.798,0-3.595,0-5.392V102H78.252l0.033,19.064
				c-0.056,0.496-0.128,1.164-0.16,1.67C78.053,123.346,78,123.856,78,124.431z M100.188,119.475
				C100.232,119.589,100.243,119.624,100.188,119.475L100.188,119.475z M96.721,115.528
				C96.142,115.294,96.405,115.389,96.721,115.528L96.721,115.528z"/>
			<path fill="#FFFFFF" d="M114,108V59.18C114,51.401,107.61,45,99.831,45h-9.232C82.82,45,76,51.401,76,59.18V108"/>
			<g>
				<path fill="#FFFFFF" d="M105.266,53.311c-0.09-0.039-0.183-0.07-0.274-0.105C104.84,53.137,104.819,53.125,105.266,53.311z"/>
				<path fill="#FFFFFF" d="M113.264,59.768c-0.083-0.111-0.163-0.224-0.246-0.334C113.234,59.721,113.287,59.794,113.264,59.768z"
					/>
				<path fill="#FFFFFF" d="M99.642,51.774C98.745,51.625,100.063,51.807,99.642,51.774L99.642,51.774z"/>
				<path fill="#FAD2B6" d="M129.997,101.332c-0.203,2.247-1.731,4.23-4.143,4.23c-2.105,0-4.345-2.021-4.143-4.273
					c0.094-1.049,0.156-1.289,0.205-3.289h8.283C130.152,100,130.091,100.284,129.997,101.332z"/>
				<path fill="#FFFFFF" d="M117.269,66.806C116.903,65.901,117.467,67.243,117.269,66.806L117.269,66.806z"/>
				<path fill="#FFFFFF" d="M121.171,82.024C121.086,81.324,121.31,83.021,121.171,82.024L121.171,82.024z"/>
				<path fill="#FFFFFF" d="M109.277,55.7C109.15,55.584,109.527,55.873,109.277,55.7L109.277,55.7z"/>
				<path fill="#FFFFFF" d="M68.043,100.402c0.012,0.104,0.021,0.208,0.034,0.312C68.161,101.417,67.85,99.34,68.043,100.402z"/>
				<path fill="#FAD2B6" d="M67.865,98c0.031,1,0.067,1.104,0.109,1.569c0.021,0.219,0.045,0.526,0.069,0.745
					c-0.194-1.063,0.095,1.059,0.012,0.355c-0.014-0.104-0.056-0.164-0.056-0.268c0,0.002,0,0.002,0,0.004
					c0,2.22-0.552,4.458-2.871,5.096c-2.028,0.559-4.679-0.846-5.084-3.068C59.79,101.034,59.619,100,59.492,98H67.865z"/>
				<path fill="#FFFFFF" d="M60.737,77.713c2.056-12.028,7.604-24.291,18.702-30.445c11.936-6.618,28.29-5.309,37.973,4.628
					c8.286,8.503,11.133,20.839,12.312,32.267C130.197,88.772,130.411,94,130.2,98h-8.283c0.247-5-0.153-10.678-0.812-15.995
					c-0.008-0.063-0.105-0.004-0.105-0.048c0,0.998,0-0.7,0,0c0-0.004,0,0.027,0,0.022c0-0.32-0.008-0.624-0.057-0.943
					c-0.097-0.649-0.164-1.287-0.277-1.933c-0.25-1.425-0.527-2.836-0.861-4.243c-0.65-2.741-1.485-5.431-2.541-8.042
					c-0.002-0.005,0.002-0.007,0-0.013c0.198,0.437-0.365-0.905,0,0c-0.023-0.051-0.053-0.123-0.102-0.233
					c-0.135-0.306-0.274-0.609-0.416-0.913c-0.283-0.604-0.587-1.199-0.899-1.788c-0.67-1.263-1.427-2.479-2.249-3.647
					c-0.107-0.154-0.222-0.304-0.334-0.457c0.023,0.027-0.029-0.047-0.246-0.334c0.083,0.11,0.163,0.224,0.246,0.334
					c-0.044-0.049-0.343-0.436-0.41-0.517c-0.413-0.501-0.853-0.981-1.3-1.452c-0.448-0.471-0.921-0.916-1.402-1.352
					c-0.242-0.218-0.491-0.426-0.741-0.634c-0.067-0.056-0.108-0.091-0.133-0.113c0.25,0.173-0.127-0.116,0,0
					c-0.063-0.044-0.163-0.116-0.324-0.232c-1.078-0.779-2.235-1.441-3.429-2.022c-0.068-0.034-0.374-0.168-0.533-0.24
					c0.092,0.036,0.185,0.067,0.274,0.105c-0.446-0.187-0.426-0.174-0.274-0.105c-0.231-0.09-0.463-0.181-0.695-0.266
					c-0.78-0.286-1.581-0.511-2.386-0.715c-0.72-0.182-1.451-0.316-2.184-0.437c-0.034-0.006-0.056-0.01-0.085-0.014
					c0.421,0.033-0.896-0.149,0,0c-0.066-0.006-0.173-0.016-0.342-0.035c-0.395-0.042-0.79-0.068-1.187-0.094
					c-1.866-0.125-3.747-0.044-5.607,0.137c-0.339,0.033-0.957,0.121-1.863,0.292c-0.801,0.152-1.592,0.351-2.377,0.567
					c-1.972,0.542-2.622,0.837-3.996,1.524c-1.293,0.647-2.516,1.428-3.683,2.28c-0.015,0.012-0.025,0.018-0.04,0.029
					c0.305-0.263-0.742,0.541,0,0c-0.045,0.039-0.12,0.101-0.234,0.194c-0.272,0.223-0.536,0.455-0.798,0.688
					c-0.611,0.54-1.186,1.118-1.746,1.708c-0.479,0.504-0.929,1.035-1.371,1.571c-0.042,0.051-0.075,0.091-0.104,0.127
					c0.434-0.586-0.465,0.56,0,0c-0.028,0.037-0.059,0.079-0.099,0.132c-0.208,0.277-0.407,0.562-0.606,0.847
					c-0.865,1.235-1.625,2.542-2.327,3.875c-0.326,0.618-0.625,1.249-0.918,1.882c-0.093,0.202-0.181,0.406-0.27,0.609
					c0.002-0.009-0.038,0.079-0.155,0.351c0.05-0.117,0.104-0.234,0.155-0.351c-0.005,0.022-0.234,0.57-0.268,0.656
					c-0.558,1.408-1.033,2.847-1.464,4.298c-0.811,2.735-1.392,5.535-1.834,8.351c-0.05,0.32-0.096,0.642-0.142,0.963
					c0.065-0.544-0.148,1.03-0.003,0.02c0.001-0.006,0.003-0.013,0.003-0.02c-0.006,0.053-0.015,0.12-0.027,0.217
					c-0.08,0.637-0.149,1.275-0.213,1.914c-0.135,1.318-0.229,2.641-0.301,3.963c-0.152,2.778-0.165,5.39-0.045,8.168
					C67.802,97.151,67.831,98,67.865,98h-8.373C58.892,91,59.616,84.271,60.737,77.713z"/>
				<path fill="#FFFFFF" d="M72.075,68.109c-0.051,0.117-0.105,0.234-0.155,0.351C72.037,68.188,72.077,68.1,72.075,68.109z"/>
				<path fill="#FFFFFF" d="M76.294,60.764C75.829,61.323,76.728,60.177,76.294,60.764L76.294,60.764z"/>
				<path fill="#FFFFFF" d="M68.367,82.376c0,0.007-0.002,0.013-0.003,0.02C68.219,83.407,68.432,81.832,68.367,82.376z"/>
				<path fill="#FFFFFF" d="M80.548,56.475C79.806,57.016,80.853,56.212,80.548,56.475L80.548,56.475z"/>
			</g>
			<path fill="#FAD2B6" d="M89.692,33.654l-0.79,10.737c0,3.268,2.649,5.609,5.917,5.609h0.789c3.269,0,5.918-2.341,5.918-5.609
				L100.738,33.5"/>
			<g>
				<path fill="#FAD2B6" d="M85.314,25.786c0,5.919,4.783,12.743,11.881,13.885c9.202,1.479,11.729-0.79,11.101-9.954
					c-0.423-6.174,5.447-20.53-9.604-19.295C91.532,11.008,85.314,16.344,85.314,25.786z"/>
				<g>
					<path fill="#B96B54" d="M87.325,9.195c4.414-3.839,11.532-4.985,20.081-3.005l0.827,4.943l2.109-4.154
						c0.26,0.08,0.521,0.16,0.783,0.244c0,0,0.202,3.91-2.249,8.949c-0.535,1.1-12.347-2.638-16.817,0.386
						c-3.854,2.608-3.682,12.23-3.682,12.23l-1.322,4.866C87.056,33.654,78.252,17.085,87.325,9.195z"/>
				</g>
				<ellipse fill="#FAD2B6" cx="88.246" cy="24.45" rx="2.63" ry="3.024"/>
			</g>
		</g>
		<polygon fill="#C9C9C9" points="95.741,51.383 88.509,41.347 83.906,44.305 90.481,54.3 		"/>
		<polygon fill="#C9C9C9" points="94.163,51.778 101.396,41.741 105.998,44.7 99.423,54.694 		"/>
		<g>
			<polygon fill="#C21D1F" points="94.531,52 95.956,52.229 99.355,85.628 94.716,92.578 90.68,85.381 			"/>
			<path fill="#C21D1F" d="M92.979,53.87c0,2.235,0.959,2.143,2.144,2.143c1.183,0,2.143,0.092,2.143-2.143
				c0-2.236-0.96-2.144-2.143-2.144C93.938,51.726,92.979,51.634,92.979,53.87z"/>
		</g>
	</g>
	<path fill="#23140B" d="M106.656,33H96.103C96.103,33,101.396,41,106.656,33z"/>
</g>
</svg>
